<?xml version="1.0" standalone="no"?>
<!DOCTYPE svg PUBLIC "-//W3C//DTD SVG 20010904//EN"
 "http://www.w3.org/TR/2001/REC-SVG-20010904/DTD/svg10.dtd">
<svg version="1.0" xmlns="http://www.w3.org/2000/svg"
 width="60px" height="60px" viewBox="0 0 980.000000 980.000000"
 preserveAspectRatio="xMidYMid meet">
<metadata>
Created by potrace 1.16, written by Peter Selinger 2001-2019
</metadata>
<g transform="translate(0.000000,980.000000) scale(0.100000,-0.100000)"
fill="#000000" stroke="none">
<path d="M3675 8534 c-328 -49 -564 -162 -757 -362 -46 -48 -103 -116 -127
-151 -116 -171 -187 -390 -200 -621 -9 -161 -14 -174 -113 -268 -90 -86 -148
-161 -204 -266 -74 -140 -108 -325 -84 -471 31 -196 28 -208 -71 -321 -163
-187 -281 -424 -335 -674 -26 -119 -27 -439 -1 -557 151 -701 815 -1217 1637
-1272 157 -10 352 -1 388 18 57 30 80 126 43 173 -11 13 -49 39 -86 58 -65 33
-70 34 -233 41 -92 4 -198 12 -235 18 -514 85 -955 385 -1137 774 -146 310
-141 664 12 971 72 144 133 224 274 361 110 107 118 130 81 258 -51 179 -58
262 -31 377 29 130 115 238 281 356 115 82 139 122 129 217 -25 227 -17 328
35 471 111 306 367 502 744 572 116 21 296 14 410 -16 232 -61 437 -219 590
-455 58 -89 86 -119 128 -134 43 -17 81 -14 235 18 207 43 317 55 456 48 147
-7 247 -32 375 -93 217 -103 365 -251 461 -458 56 -121 74 -201 73 -336 -1
-176 -33 -275 -180 -552 -34 -65 -70 -140 -79 -168 -27 -82 -7 -117 129 -239
278 -248 399 -410 443 -596 12 -53 15 -100 11 -195 -17 -428 -294 -798 -692
-923 -152 -47 -207 -52 -552 -50 l-323 2 -1 -112 c-1 -106 0 -149 5 -154 1 -2
47 -12 101 -23 521 -107 1046 34 1389 375 226 224 376 584 376 900 0 326 -135
611 -428 903 -80 81 -110 117 -103 125 22 27 121 238 149 317 133 379 71 740
-184 1070 -206 268 -482 438 -802 496 -118 21 -367 21 -502 0 -185 -29 -194
-30 -233 -11 -21 10 -68 54 -109 103 -185 218 -407 361 -665 428 -84 22 -123
27 -278 29 -99 2 -193 1 -210 -1z"/>
<path d="M1903 8218 c-12 -36 -18 -82 -18 -143 0 -76 4 -97 25 -138 30 -60 86
-112 155 -143 59 -28 186 -57 196 -46 12 13 29 125 29 187 0 171 -96 282 -279
321 -36 7 -71 14 -78 14 -6 0 -20 -24 -30 -52z"/>
<path d="M1650 7640 c-87 -21 -205 -88 -278 -157 -35 -33 -42 -46 -42 -78 0
-34 8 -46 78 -115 190 -187 409 -219 615 -89 56 36 177 146 177 162 0 19 -102
136 -152 174 -76 57 -116 79 -177 97 -58 17 -162 20 -221 6z"/>
<path d="M3360 6639 c-63 -50 -126 -98 -139 -108 l-23 -17 101 -163 c479 -765
718 -1336 807 -1925 8 -54 12 -101 9 -104 -3 -3 -78 18 -167 46 -90 28 -166
48 -169 44 -7 -7 -69 -224 -69 -242 0 -8 129 -103 322 -236 51 -35 78 -85 78
-141 0 -21 -40 -276 -89 -568 l-88 -530 27 -12 c40 -18 180 -42 310 -53 274
-24 553 -4 733 52 69 21 69 21 62 52 -49 238 -96 529 -121 743 -21 187 -30
660 -15 838 55 668 262 1226 642 1731 l107 142 -134 106 c-74 58 -136 106
-139 106 -10 0 -347 -457 -442 -600 -69 -104 -180 -296 -315 -548 -63 -118
-119 -214 -124 -214 -5 -1 -67 107 -139 238 -183 337 -320 578 -415 729 -152
242 -475 724 -485 724 -5 0 -62 -41 -125 -90z"/>
<path d="M7255 6507 c-111 -37 -215 -132 -270 -249 -52 -110 -52 -115 25 -160
103 -60 180 -83 286 -83 84 0 95 2 166 38 95 47 174 129 237 247 l44 83 -24
19 c-13 11 -67 40 -119 66 -92 46 -97 47 -200 49 -66 2 -120 -2 -145 -10z"/>
</g>
</svg>
